#!OML:ASF F:\VICON\USERDATA\INSTALL\rory3\rory3.ASF
:FULLY-SPECIFIED
:DEGREES
3220
root 0.601722 18.0401 -0.0220653 -147.346 77.7196 216.109
lowerback 7.82368 -2.9985 -5.67034
upperback 2.72197 -4.34235 -1.60984
thorax -1.25512 -2.13856 1.87559
lowerneck -7.0891 -6.44354 -12.4664
upperneck 21.8828 -7.99155 6.23806
head 8.76831 -4.08125 3.40124
rclavicle 1.59028e-014 -7.95139e-015
rhumerus 14.2601 -41.6218 -55.4844
rradius 53.9174
rwrist -34.6715
rhand -33.4095 -6.38044
rfingers 7.12502
rthumb -6.6095 323.743
lclavicle 1.59028e-014 -7.95139e-015
lhumerus -3.42065 -45.2079 96.9634
lradius 63.1335
lwrist 81.7459
lhand -10.5951 32.8399
lfingers 7.12502
lthumb 15.4105 62.2455
rfemur -11.6536 16.1119 13.8979
rtibia 26.4016
rfoot -13.7637 -17.9864
rtoes -6.87844
lfemur -9.07961 0.477147 -2.09106
ltibia 40.5243
lfoot -21.9348 11.126
ltoes -18.7177
3221
root 0.561355 18.0486 -0.069053 -149.195 77.5524 214.14
lowerback 7.92126 -2.92128 -5.97617
upperback 2.68137 -4.26989 -1.76652
thorax -1.3449 -2.09697 1.88509
lowerneck -7.13223 -6.38678 -12.5106
upperneck 21.9477 -7.99981 6.68548
head 8.81686 -4.04543 3.56219
rclavicle 4.17448e-015 1.27222e-014
rhumerus 14.5389 -42.0403 -55.7786
rradius 54.2197
rwrist -35.2118
rhand -33.2748 -6.19736
rfingers 7.12502
rthumb -6.47949 323.922
lclavicle 4.17448e-015 1.27222e-014
lhumerus -3.60305 -43.9842 96.4119
lradius 63.4982
lwrist 84.4762
lhand -10.0108 33.7161
lfingers 7.12502
lthumb 15.9733 63.0775
rfemur -11.5806 16.2618 13.4337
rtibia 26.1377
rfoot -13.5421 -18.672
rtoes -7.59057
lfemur -9.08197 0.585652 -2.55973
ltibia 39.9342
lfoot -22.1316 10.7873
ltoes -16.376
3222
root 0.512749 18.0632 -0.11292 -152.276 77.5449 210.759
lowerback 7.96289 -2.94804 -6.67541
upperback 2.58519 -4.36398 -2.05654
thorax -1.42839 -2.13556 1.98461
lowerneck -7.1893 -6.25126 -12.3294
upperneck 21.9712 -7.89165 6.94887
head 8.8229 -3.95346 3.636
rclavicle 2.78299e-014 3.18055e-015
rhumerus 15.0905 -42.0927 -56.423
rradius 54.5438
rwrist -35.9866
rhand -33.0112 -5.76959
rfingers 7.12502
rthumb -6.22502 324.342
lclavicle 2.78299e-014 3.18055e-015
lhumerus -3.75962 -42.4938 95.4751
lradius 64.0324
lwrist 87.0897
lhand -7.05452 33.0896
lfingers 7.12502
lthumb 18.8184 62.1993
rfemur -11.6997 16.4635 12.495
rtibia 25.8413
rfoot -13.4779 -19.2809
rtoes -7.6998
lfemur -9.29717 0.62254 -3.46748
ltibia 39.3823
lfoot -22.1784 10.6721
ltoes -14.6279
3223
root 0.457788 18.0757 -0.145574 -152.252 77.306 210.483
lowerback 8.04994 -2.95388 -6.85328
upperback 2.42812 -4.40451 -2.15123
thorax -1.63027 -2.14573 1.99933
lowerneck -7.32599 -6.1713 -11.7912
upperneck 22.2194 -7.8335 6.86488
head 8.89688 -3.88549 3.52521
rclavicle -7.95139e-016 5.56597e-014
rhumerus 15.5518 -41.8853 -57.0781
rradius 55.0274
rwrist -36.5434
rhand -33.0448 -5.82272
rfingers 7.12502
rthumb -6.25746 324.29
lclavicle -7.95139e-016 5.56597e-014
lhumerus -4.11043 -41.1097 94.3476
lradius 64.9987
lwrist 89.9214
lhand -6.2484 35.4818
lfingers 7.12502
lthumb 19.5936 64.5145
rfemur -11.9399 16.9024 12.349
rtibia 25.5072
rfoot -13.517 -20.0454
rtoes -7.04519
lfemur -9.56926 0.731674 -3.47313
ltibia 38.8789
lfoot -21.853 10.4651
ltoes -15.0319
3224
root 0.413109 18.0859 -0.182349 -152.67 77.014 210.025
lowerback 8.26229 -2.87069 -6.92449
upperback 2.39649 -4.31878 -2.27206
thorax -1.79176 -2.09442 1.92133
lowerneck -7.47282 -6.22116 -11.3933
upperneck 22.5119 -7.95453 6.86392
head 9.01774 -3.90413 3.44495
rclavicle 5.14852e-014 -2.22639e-014
rhumerus 15.9706 -41.9511 -57.6299
rradius 55.619
rwrist -37.0211
rhand -33.0328 -6.18334
rfingers 7.12502
rthumb -6.24584 323.929
lclavicle 5.14852e-014 -2.22639e-014
lhumerus -4.15417 -38.4059 94.3509
lradius 64.8081
lwrist 91.2239
lhand -6.32712 37.7731
lfingers 7.12502
lthumb 19.5179 66.8134
rfemur -11.7993 17.3386 12.2647
rtibia 25.1636
rfoot -13.776 -20.773
rtoes -5.42902
lfemur -9.59022 0.717419 -3.46821
ltibia 38.4512
lfoot -21.6436 9.80894
ltoes -14.0472
3225
root 0.384764 18.1035 -0.22936 -155.894 76.9099 206.974
lowerback 8.48834 -2.71923 -7.4194
upperback 2.52136 -4.16001 -2.58454
thorax -1.78537 -2.00844 1.86628
lowerneck -7.43764 -6.29507 -11.2734
upperneck 22.5282 -8.13422 7.10458
head 9.03812 -3.95465 3.48907
rclavicle 8.94531e-015 1.43125e-014
rhumerus 16.1694 -41.9149 -57.6574
rradius 56.2797
rwrist -37.7366
rhand -33.0007 -6.19046
rfingers 7.12502
rthumb -6.21488 323.921
lclavicle 8.94531e-015 1.43125e-014
lhumerus -4.19445 -36.6733 93.7581
lradius 65.3774
lwrist 92.9737
lhand -6.53766 38.0558
lfingers 7.12502
lthumb 19.3154 67.1165
rfemur -11.1963 17.5817 11.5804
rtibia 24.7498
rfoot -13.9244 -21.4057
rtoes -4.44259
lfemur -9.38843 0.534943 -4.25563
ltibia 38.139
lfoot -21.7113 9.04392
ltoes -10.9984
3226
root 0.351764 18.1179 -0.274391 -158.122 76.8646 204.921
lowerback 8.7175 -2.56774 -7.77946
upperback 2.6446 -3.9929 -2.79126
thorax -1.78573 -1.92015 1.84464
lowerneck -7.48238 -6.32256 -11.2845
upperneck 22.5253 -8.20922 7.29693
head 9.0611 -3.97078 3.5479
rclavicle -4.96962e-015 -1.59028e-015
rhumerus 16.2509 -41.1986 -57.2687
rradius 57.2179
rwrist -38.7621
rhand -33.1425 -6.23996
rfingers 7.12502
rthumb -6.35175 323.875
lclavicle -4.96962e-015 -1.59028e-015
lhumerus -4.16456 -34.7855 93.0489
lradius 66.0229
lwrist 94.6196
lhand -6.75544 37.2977
lfingers 7.12502
lthumb 19.106 66.3792
rfemur -10.7032 17.9015 11.1096
rtibia 24.3419
rfoot -13.6778 -22.215
rtoes -4.62987
lfemur -9.24818 0.461067 -4.86393
ltibia 37.922
lfoot -21.5742 8.60894
ltoes -10.2271
